<?xml version="1.0" encoding="UTF-8" standalone="no"?>
<svg
   xmlns:dc="http://purl.org/dc/elements/1.1/"
   xmlns:cc="http://creativecommons.org/ns#"
   xmlns:rdf="http://www.w3.org/1999/02/22-rdf-syntax-ns#"
   xmlns:svg="http://www.w3.org/2000/svg"
   xmlns="http://www.w3.org/2000/svg"
   xmlns:sodipodi="http://sodipodi.sourceforge.net/DTD/sodipodi-0.dtd"
   xmlns:inkscape="http://www.inkscape.org/namespaces/inkscape"
   version="1.1"
   id="svg2"
   xml:space="preserve"
   width="446.16"
   height="151.73334"
   viewBox="0 0 446.16 151.73334"
   sodipodi:docname="Dima_BildWortMarke22_ok.eps"><metadata
     id="metadata8"><rdf:RDF><cc:Work
         rdf:about=""><dc:format>image/svg+xml</dc:format><dc:type
           rdf:resource="http://purl.org/dc/dcmitype/StillImage" /></cc:Work></rdf:RDF></metadata><defs
     id="defs6" /><sodipodi:namedview
     pagecolor="#ffffff"
     bordercolor="#666666"
     borderopacity="1"
     objecttolerance="10"
     gridtolerance="10"
     guidetolerance="10"
     inkscape:pageopacity="0"
     inkscape:pageshadow="2"
     inkscape:window-width="640"
     inkscape:window-height="480"
     id="namedview4" /><g
     id="g10"
     inkscape:groupmode="layer"
     inkscape:label="ink_ext_XXXXXX"
     transform="matrix(1.3333333,0,0,-1.3333333,0,151.73333)"><g
       id="g12"
       transform="scale(0.1)"><path
         d="M 1159.77,1032.43 V 726.684 c 0,-7.829 6.34,-14.176 14.17,-14.176 h 101.75 11.69 c 7.82,0 14.17,6.347 14.17,14.176 v 2.777 l 0.01,397.049 c 0,6.21 -5.02,11.23 -11.23,11.23 -2.37,0 -4.58,-0.73 -6.4,-1.99 l -110.08,-76.73 c -8.54,-5.82 -14.08,-15.48 -14.08,-26.59"
         style="fill:#5f523c;fill-opacity:1;fill-rule:nonzero;stroke:none"
         id="path14" /><path
         d="m 3346.15,855.227 -0.06,267.813 c 0,7.83 -6.34,14.17 -14.17,14.17 H 3204.3 L 2615.94,724.746 c -1.82,-1.258 -4.03,-1.984 -6.41,-1.984 -6.2,0 -11.25,5.047 -11.25,11.25 v 389.028 c 0,7.83 -6.35,14.17 -14.17,14.17 h -90.92 L 2097.71,860.344 c -0.7,-0.469 -2.22,-1.137 -3.75,-1.137 -3.23,0 -5.84,2.645 -5.84,5.871 v 257.962 c 0,7.83 -6.35,14.17 -14.18,14.17 h -91.25 L 1587.41,860.328 c -0.72,-0.469 -2.23,-1.137 -3.76,-1.137 -3.23,0 -5.86,2.649 -5.86,5.875 v 257.974 c 0,7.82 -6.35,14.17 -14.18,14.17 h -113.33 c -7.83,0 -14.17,-6.34 -14.17,-14.17 V 726.152 c 0,-7.824 6.34,-14.172 14.17,-14.172 h 117.41 c 7.06,0 13.59,2.333 18.9,6.172 l 350.8,245.899 c 0.71,0.469 2.24,1.137 3.76,1.137 3.22,0 5.76,-2.637 5.76,-5.864 V 726.152 c 0,-7.824 6.35,-14.172 14.18,-14.172 h 116.8 c 7.11,0 13.67,2.293 18.98,6.133 l 350.75,245.938 c 0.71,0.469 2.22,1.137 3.76,1.137 3.23,0 5.85,-2.637 5.85,-5.864 V 726.16 c 0,-7.828 6.27,-14.18 14.1,-14.18 l 327.28,-0.019 396.09,277.441 c 0.71,0.469 2.23,1.137 3.76,1.137 3.22,0 5.84,-2.637 5.84,-5.863 l -0.02,-129.496 0.08,-131.657 c 0,-6.207 5.02,-11.23 11.23,-11.23 2.36,0 4.58,0.723 6.39,1.98 l 110.07,77.02 c 8.54,5.812 14.1,15.477 14.1,26.586 v 37.348"
         style="fill:#5f523c;fill-opacity:1;fill-rule:nonzero;stroke:none"
         id="path16" /><path
         d="m 276.207,938.293 v 2.781 c 0,7.828 6.344,14.172 14.168,14.172 h 11.691 101.747 c 7.828,0 14.175,-6.344 14.175,-14.172 l 0.035,-97.297 v -3.672 c 0,-7.828 6.348,-14.175 14.172,-14.175 h 2.782 l 454.531,-0.035 5.75,0.035 c 7.828,0 14.172,6.347 14.172,14.175 v 2.778 l -0.305,75.984 c 0,11.028 -5.488,20.699 -13.914,26.531 l -100.539,70.342 c -5.313,3.84 -11.902,6.23 -18.957,6.23 l -389.797,0.02 c -11.109,0 -20.707,6.34 -27.301,13.62 l -79.008,84.6 c -1.257,1.82 -1.992,4.03 -1.992,6.41 0,6.2 5.028,11.36 11.231,11.36 h 515.754 c 12.339,0 23.652,-3.9 33.027,-10.47 l 163.731,-114.59 c 14.44,-10.55 23.66,-27.615 23.66,-46.869 l 0.12,-220.961 c 0,-17.844 -14.48,-32.32 -32.324,-32.32 h -699.539 -2.785 c -7.828,0 -14.168,6.343 -14.168,14.171 l -0.117,211.352"
         style="fill:#5f523c;fill-opacity:1;fill-rule:nonzero;stroke:none"
         id="path18" /><path
         d="m 1869.18,428.055 v -56.321 h -56.35 v 225.235 l 224.92,0.047 c 24,0 38.28,-14.457 40.87,-17.067 3.9,-4.09 17.02,-17.113 17.02,-41.222 v -52.391 c 0,-24.102 -11.89,-37.199 -15.78,-41.281 -2.58,-2.617 -17.93,-16.992 -41.93,-16.992 h 19.53 l 37.75,-56.329 h -67.85 l -35.22,52.61 c -1.52,2.254 -4.07,3.719 -7,3.719 z m 0,56.316 h 162.78 c 3.45,0 5.95,2.578 5.95,5.82 v 44.61 c 0,3.183 -2.44,5.781 -5.63,5.781 l -163.1,0.02 v -56.231"
         style="fill:#f46f1b;fill-opacity:1;fill-rule:nonzero;stroke:none"
         id="path20" /><path
         d="m 3027.51,371.773 h -274.79 v 225.243 h 274.68 v -56.375 h -218.34 v -28.223 h 206.96 v -56.289 h -206.96 v -27.988 l 218.45,-0.078 v -56.29"
         style="fill:#f46f1b;fill-opacity:1;fill-rule:nonzero;stroke:none"
         id="path22" /><path
         d="m 2111.76,597.016 c 0,0 278.38,-0.11 282.81,-0.11 v -56.265 h -112.91 l -0.02,-168.868 h -57.87 l 0.01,168.868 h -112.02 v 56.375"
         style="fill:#f46f1b;fill-opacity:1;fill-rule:nonzero;stroke:none"
         id="path24" /><path
         d="M 2474.8,535.262 V 371.598 h -56.36 c 0,4.425 0,220.797 0,225.23 h 66.81 l 163.62,-163.726 v 163.914 l 56.37,-0.188 c 0,-4.433 0,-220.805 0,-225.23 h -66.59 L 2474.8,535.262"
         style="fill:#f46f1b;fill-opacity:1;fill-rule:nonzero;stroke:none"
         id="path26" /><path
         d="m 3119.46,428.055 v -56.321 h -56.35 v 225.235 l 224.92,0.047 c 23.99,0 38.28,-14.457 40.88,-17.067 3.88,-4.09 17.01,-17.113 17.01,-41.222 l 0.01,-52.391 c 0,-24.102 -11.91,-37.199 -15.79,-41.281 -2.59,-2.617 -17.93,-16.992 -41.94,-16.992 h 19.53 l 37.76,-56.329 h -67.85 l -35.22,52.61 c -1.52,2.254 -4.08,3.719 -7,3.719 z m 0,56.316 h 162.78 c 3.45,0 5.94,2.578 5.94,5.82 l 0.01,44.61 c 0,3.183 -2.44,5.781 -5.63,5.781 l -163.1,0.02 v -56.231"
         style="fill:#f46f1b;fill-opacity:1;fill-rule:nonzero;stroke:none"
         id="path28" /><path
         d="m 1536.48,428.082 0.02,-56.543 h -56.35 l 0.03,167.188 c 0,24.109 13.13,37.132 17.02,41.222 2.59,2.61 16.88,17.067 40.88,17.067 h 169.38 c 24,0 38.28,-14.457 40.88,-17.067 3.89,-4.09 17.01,-17.113 17.01,-41.222 l 0.04,-167.188 h -56.19 l 0.02,56.543 z m 0.02,104.063 V 484.41 h 172.72 v 47.735 c 0,4.687 -3.64,8.496 -8.69,8.496 h -155.37 c -5.03,0 -8.66,-3.809 -8.66,-8.496"
         style="fill:#f46f1b;fill-opacity:1;fill-rule:nonzero;stroke:none"
         id="path30" /><path
         d="m 1384.82,428.055 h -168.7 v -56.321 h -56.36 v 225.235 l 224.92,0.047 c 24,0 38.29,-14.457 40.88,-17.067 3.89,-4.09 17.02,-17.113 17.02,-41.222 v -52.391 c 0,-24.102 -11.9,-37.199 -15.79,-41.281 -2.59,-2.617 -17.97,-17 -41.97,-17 z m -168.7,56.316 h 162.77 c 3.45,0 5.94,2.578 5.95,5.82 l 0.01,44.61 c 0,3.183 -2.44,5.781 -5.63,5.781 l -163.1,0.02 v -56.231"
         style="fill:#f46f1b;fill-opacity:1;fill-rule:nonzero;stroke:none"
         id="path32" /><path
         d="M 75.4297,211.324 99.1406,111.988 H 51.4492 Z M 59.6172,233.727 48.8125,192.359 31.9492,134.121 7.71094,49.2695 36.168,48.75 l 9.4804,39 59.5506,-0.5312 9.492,-38.2071 28.985,-0.5312 -50.3322,185.7735 -33.7266,-0.527"
         style="fill:#5f523c;fill-opacity:1;fill-rule:nonzero;stroke:none"
         id="path34" /><path
         d="m 196.035,177.066 h -25.293 l 1.582,-23.445 V 48.4805 h 25.824 v 84.0585 l 1.579,8.172 4.484,8.164 5.266,3.691 6.058,1.844 15.551,1.309 0.262,23.457 h -12.383 l -10.805,-4.473 -10.801,-12.918 -1.324,15.281"
         style="fill:#5f523c;fill-opacity:1;fill-rule:nonzero;stroke:none"
         id="path36" /><path
         d="m 338.176,134.641 -2.371,22.406 -7.645,11.066 -10.801,7.117 -18.183,2.891 -15.016,-1.836 -10.277,-4.746 -7.379,-7.383 -3.691,-7.383 -3.426,-13.964 -0.789,-52.4301 1.312,-17.1289 7.379,-14.7617 8.172,-7.1094 8.699,-3.9492 13.961,-0.7891 14.227,1.3203 9.23,4.4805 8.426,6.3203 4.742,8.6992 3.692,22.6485 -24.508,0.2695 -0.528,-9.7578 -3.16,-8.9414 -3.687,-3.6992 -7.641,-2.9024 -8.172,2.3828 -5.004,6.8477 -1.578,9.75 V 136.75 l 0.785,11.078 5.797,8.945 7.906,2.911 7.907,-3.164 5.793,-6.59 1.054,-14.758 24.774,-0.531"
         style="fill:#5f523c;fill-opacity:1;fill-rule:nonzero;stroke:none"
         id="path38" /><path
         d="M 374.543,233.199 V 48.4805 h 25.559 v 86.6915 l 1.316,11.855 6.324,9.746 9.746,3.438 9.754,-3.438 5.27,-8.691 1.316,-11.594 V 48.75 h 24.77 v 100.125 l -3.953,15.809 -4.743,6.328 -7.379,5 -16.859,3.957 -14.234,-3.156 -12.117,-9.493 v 65.879 h -24.77"
         style="fill:#5f523c;fill-opacity:1;fill-rule:nonzero;stroke:none"
         id="path40" /><path
         d="m 503.531,233.453 v -25.555 h 25.032 v 25.555 z m -1.058,-56.64 V 48.75 h 25.824 v 128.063 h -25.824"
         style="fill:#5f523c;fill-opacity:1;fill-rule:nonzero;stroke:none"
         id="path42" /><path
         d="m 555.758,177.066 v -18.437 h 18.969 V 75.1094 l 1.054,-11.8711 3.164,-7.6485 8.692,-5.5312 28.988,-2.3672 v 18.707 l -8.695,0.2618 -4.742,2.3789 -2.372,4.4922 -0.789,9.5078 v 75.0629 h 17.125 v 18.183 h -17.918 v 35.567 l -24.238,-10.801 v -24.238 l -19.238,0.253"
         style="fill:#5f523c;fill-opacity:1;fill-rule:nonzero;stroke:none"
         id="path44" /><path
         d="m 671.438,140.184 0.792,7.644 6.852,10.274 8.164,2.89 9.223,-3.418 6.058,-7.383 1.059,-10.546 v -15.536 l -32.148,-0.269 z m 57.445,-35.055 v 27.68 l -1.32,18.703 -2.629,8.426 -5.801,8.437 -8.434,5.801 -9.222,3.418 -13.176,1.32 -15.281,-2.101 -11.332,-5.02 -7.375,-6.844 -4.215,-7.375 -3.426,-16.074 -1.059,-32.949 1.059,-28.1799 3.426,-13.9727 5.531,-10.0195 8.164,-6.3203 10.277,-4.207 11.598,-0.2735 15.285,1.0625 11.328,5.5313 8.168,6.5898 4.742,7.6367 3.95,22.1329 h -25.555 l -1.316,-12.1211 -2.641,-4.4805 -4.207,-4.2188 -7.906,-1.582 -6.067,0.5313 -3.953,2.9101 -3.949,5.2695 -1.844,11.3321 v 18.9571 h 57.18"
         style="fill:#5f523c;fill-opacity:1;fill-rule:nonzero;stroke:none"
         id="path46" /><path
         d="m 827.621,176.539 -34.258,-55.328 39.528,-72.7305 h 28.457 l -42.95,71.9415 37.68,56.117 z m -60.867,56.914 V 48.75 h 26.082 v 184.703 h -26.082"
         style="fill:#5f523c;fill-opacity:1;fill-rule:nonzero;stroke:none"
         id="path48" /><path
         d="m 875.16,177.066 v -18.437 h 18.977 V 75.1094 l 1.054,-11.8711 3.164,-7.6485 8.692,-5.5312 28.984,-2.3672 v 18.707 l -8.691,0.2618 -4.746,2.3789 -2.375,4.4922 -0.785,9.5078 v 75.0629 h 17.125 v 18.183 h -17.914 v 35.567 l -24.247,-10.801 v -24.238 l -19.238,0.253"
         style="fill:#5f523c;fill-opacity:1;fill-rule:nonzero;stroke:none"
         id="path50" /><path
         d="M 968.977,176.539 V 79.0508 l 3.421,-15.8125 4.219,-7.3789 6.586,-5.2813 17.397,-4.4687 12.65,1.582 11.06,7.1094 5.01,5.8008 0.26,-11.8516 h 25.03 l -1.05,14.2188 -0.53,46.9102 v 66.406 h -26.09 V 86.6992 l -2.11,-10.289 -6.05,-8.4297 -8.7,-2.6289 -8.17,2.1093 -6.058,6.5782 -2.106,10.0195 v 92.4804 h -24.769"
         style="fill:#5f523c;fill-opacity:1;fill-rule:nonzero;stroke:none"
         id="path52" /><path
         d="m 1121.41,177.066 h -25.29 l 1.58,-23.445 V 48.4805 h 25.82 v 84.0585 l 1.58,8.172 4.48,8.164 5.27,3.691 6.06,1.844 15.55,1.309 0.26,23.457 h -12.38 l -10.81,-4.473 -10.8,-12.918 -1.32,15.281"
         style="fill:#5f523c;fill-opacity:1;fill-rule:nonzero;stroke:none"
         id="path54" /><path
         d="m 1303.34,66.6602 -34.26,1.5781 -9.75,5.8008 -6.85,11.332 -2.11,13.957 1.32,10.2809 7.64,14.5 6.85,4.481 8.96,2.109 28.2,1.039 z m 1.58,166.5388 -22.14,1.309 -14.75,-1.055 -11.59,-2.89 -10.55,-6.063 -7.37,-7.637 -4.75,-9.23 -3.42,-10.274 -0.53,-10.546 0.79,-12.911 3.69,-10.273 10.27,-11.59 10.81,-6.848 -13.96,-8.171 -10.28,-9.758 -5.28,-11.332 -1.57,-17.1214 1.31,-16.5977 3.69,-11.5898 8.43,-10.8125 9.49,-7.3672 12.38,-3.6914 7.91,-1.3203 26.35,-1.0586 33.73,1.3203 v 84.0466 l 21.87,-0.258 v 21.348 l -21.61,-0.262 v 25.555 l -24.24,-0.262 v -25.031 l -26.61,1.582 -8.17,3.164 -6.85,5.801 -4.48,8.691 -1.59,10.539 2.9,17.391 9.23,8.957 18.71,4.746 17.92,-2.109 0.26,21.609"
         style="fill:#5f523c;fill-opacity:1;fill-rule:nonzero;stroke:none"
         id="path56" /><path
         d="m 1391.72,233.727 v -23.192 h 43.47 V 48.4805 h 27.93 V 210.27 h 43.49 v 23.457 h -114.89"
         style="fill:#5f523c;fill-opacity:1;fill-rule:nonzero;stroke:none"
         id="path58" /><path
         d="m 1531.51,89.5898 0.79,51.9102 2.37,8.43 3.96,5.789 10.28,4.746 8.69,-3.418 4.22,-4.746 2.37,-10.274 1.05,-16.336 -0.26,-17.921 -0.53,-23.7114 -2.11,-8.168 -3.69,-6.6015 -10.27,-4.4688 -10.81,4.4688 -5,9.2304 z m -24.77,8.1602 1.06,-21.8594 5.79,-13.9687 7.91,-9.2227 9.75,-4.7383 15.54,-1.5898 15.03,1.0586 10.8,5.5391 7.9,6.582 4.48,7.9101 4.22,21.3399 0.26,22.9292 v 26.86 l -2.11,13.711 -5.53,12.383 -14.23,10.8 -18.18,3.164 -12.65,-1.316 -11.85,-4.211 -9.75,-7.91 -5.28,-9.492 -2.1,-14.746 -0.53,-11.602 -0.53,-31.621"
         style="fill:#5f523c;fill-opacity:1;fill-rule:nonzero;stroke:none"
         id="path60" /><path
         d="m 1613.12,177.066 v -18.437 h 18.97 V 75.1094 l 1.06,-11.8711 3.16,-7.6485 8.69,-5.5312 28.99,-2.3672 v 18.707 l -8.69,0.2618 -4.74,2.3789 -2.38,4.4922 -0.79,9.5078 v 75.0629 h 17.13 v 18.183 h -17.92 v 35.567 l -24.24,-10.801 v -24.238 l -19.24,0.253"
         style="fill:#5f523c;fill-opacity:1;fill-rule:nonzero;stroke:none"
         id="path62" /><path
         d="m 1768.07,111.73 -1.59,-25.5581 -2.63,-7.9102 -4.75,-6.8633 -11.05,-4.2187 -7.66,1.332 -4.47,4.4688 -3.17,14.2383 3.43,12.9102 7.12,6.062 z m -32.41,28.454 1.05,11.589 6.59,8.438 7.9,1.836 8.96,-2.891 6.32,-7.644 1.06,-9.758 v -12.383 l -25.82,-3.16 -16.6,-5.27 -8.69,-6.062 -5.02,-7.899 -2.63,-13.4409 -0.53,-9.75 2.37,-18.711 7.64,-11.5898 9.75,-6.3281 11.34,-0.7891 9.21,0.7891 13.44,7.6406 5.8,5.8008 2.1,-12.1211 h 23.99 l -1.32,19.5 v 70.8825 l -1.32,13.965 -3.16,9.219 -11.06,11.601 -10.28,4.473 -13.97,1.848 -20.03,-2.903 -12.38,-7.636 -5.27,-6.055 -2.89,-8.437 -1.33,-14.754 h 24.78"
         style="fill:#5f523c;fill-opacity:1;fill-rule:nonzero;stroke:none"
         id="path64" /><path
         d="M 1835.9,232.926 V 48.75 h 25.82 v 184.176 h -25.82"
         style="fill:#5f523c;fill-opacity:1;fill-rule:nonzero;stroke:none"
         id="path66" /><path
         d="M 1903.41,176.539 V 79.0508 l 3.43,-15.8125 4.21,-7.3789 6.59,-5.2813 17.39,-4.4687 12.65,1.582 11.07,7.1094 5,5.8008 0.26,-11.8516 h 25.03 l -1.05,14.2188 -0.53,46.9102 v 66.406 h -26.08 V 86.6992 l -2.1,-10.289 -6.07,-8.4297 -8.7,-2.6289 -8.16,2.1093 -6.06,6.5782 -2.11,10.0195 v 92.4804 h -24.77"
         style="fill:#5f523c;fill-opacity:1;fill-rule:nonzero;stroke:none"
         id="path68" /><path
         d="m 2055.32,176.813 h -24.5 l 1.31,-24.774 V 49.0117 h 26.09 v 89.8513 l 1.58,10.274 6.32,8.164 9.23,2.637 8.96,-2.364 5.01,-6.855 2.11,-9.481 V 48.75 h 25.29 l -1.06,100.914 -5.52,16.602 -8.44,8.164 -7.64,3.429 -10.28,1.582 -15.28,-3.429 -13.18,-9.746 v 10.547"
         style="fill:#5f523c;fill-opacity:1;fill-rule:nonzero;stroke:none"
         id="path70" /><path
         d="m 2145.58,177.066 v -18.437 h 18.97 V 75.1094 l 1.05,-11.8711 3.17,-7.6485 8.69,-5.5312 28.98,-2.3672 v 18.707 l -8.69,0.2618 -4.74,2.3789 -2.38,4.4922 -0.79,9.5078 v 75.0629 h 17.13 v 18.183 h -17.92 v 35.567 l -24.24,-10.801 v -24.238 l -19.23,0.253"
         style="fill:#5f523c;fill-opacity:1;fill-rule:nonzero;stroke:none"
         id="path72" /><path
         d="m 2261.25,140.184 0.8,7.644 6.86,10.274 8.16,2.89 9.22,-3.418 6.05,-7.383 1.06,-10.546 v -15.536 l -32.15,-0.269 z m 57.45,-35.055 v 27.68 l -1.32,18.703 -2.63,8.426 -5.81,8.437 -8.42,5.801 -9.23,3.418 -13.17,1.32 -15.29,-2.101 -11.33,-5.02 -7.38,-6.844 -4.2,-7.375 -3.44,-16.074 -1.05,-32.949 1.05,-28.1799 3.44,-13.9727 5.53,-10.0195 8.16,-6.3203 10.28,-4.207 11.6,-0.2735 15.27,1.0625 11.34,5.5313 8.17,6.5898 4.74,7.6367 3.95,22.1329 h -25.56 l -1.31,-12.1211 -2.64,-4.4805 -4.22,-4.2188 -7.91,-1.582 -6.05,0.5313 -3.96,2.9101 -3.95,5.2695 -1.84,11.3321 v 18.9571 h 57.18"
         style="fill:#5f523c;fill-opacity:1;fill-rule:nonzero;stroke:none"
         id="path74" /><path
         d="m 2380.81,177.066 h -25.29 l 1.58,-23.445 V 48.4805 h 25.83 v 84.0585 l 1.57,8.172 4.48,8.164 5.28,3.691 6.05,1.844 15.55,1.309 0.26,23.457 h -12.38 l -10.81,-4.473 -10.8,-12.918 -1.32,15.281"
         style="fill:#5f523c;fill-opacity:1;fill-rule:nonzero;stroke:none"
         id="path76" /><path
         d="m 2470.25,176.813 h -24.51 l 1.32,-24.774 V 49.0117 h 26.08 v 89.8513 l 1.59,10.274 6.32,8.164 9.22,2.637 8.97,-2.364 5,-6.855 2.11,-9.481 V 48.75 h 25.29 l -1.05,100.914 -5.53,16.602 -8.44,8.164 -7.64,3.429 -10.27,1.582 -15.29,-3.429 -13.17,-9.746 v 10.547"
         style="fill:#5f523c;fill-opacity:1;fill-rule:nonzero;stroke:none"
         id="path78" /><path
         d="m 2597.13,140.184 0.79,7.644 6.85,10.274 8.17,2.89 9.23,-3.418 6.05,-7.383 1.06,-10.546 v -15.536 l -32.15,-0.269 z m 57.44,-35.055 v 27.68 l -1.32,18.703 -2.62,8.426 -5.81,8.437 -8.43,5.801 -9.22,3.418 -13.19,1.32 -15.27,-2.101 -11.33,-5.02 -7.38,-6.844 -4.22,-7.375 -3.42,-16.074 -1.05,-32.949 1.05,-28.1799 3.42,-13.9727 5.54,-10.0195 8.16,-6.3203 10.29,-4.207 11.59,-0.2735 15.28,1.0625 11.33,5.5313 8.17,6.5898 4.74,7.6367 3.95,22.1329 h -25.55 l -1.32,-12.1211 -2.64,-4.4805 -4.21,-4.2188 -7.91,-1.582 -6.06,0.5313 -3.96,2.9101 -3.94,5.2695 -1.85,11.3321 v 18.9571 h 57.18"
         style="fill:#5f523c;fill-opacity:1;fill-rule:nonzero;stroke:none"
         id="path80" /><path
         d="M 2693.23,233.199 V 48.4805 h 25.56 v 86.6915 l 1.32,11.855 6.33,9.746 9.74,3.438 9.76,-3.438 5.26,-8.691 1.32,-11.594 V 48.75 h 24.77 v 100.125 l -3.95,15.809 -4.75,6.328 -7.38,5 -16.85,3.957 -14.23,-3.156 -12.12,-9.493 v 65.879 h -24.78"
         style="fill:#5f523c;fill-opacity:1;fill-rule:nonzero;stroke:none"
         id="path82" /><path
         d="m 2845.15,176.813 h -25.31 l 1.59,-26.602 -0.26,-42.852 V 49.0117 h 25.02 l 0.8,88.3283 1.58,10.508 6.06,8.945 8.69,3.145 8.97,-2.891 5.01,-7.09 1.84,-8.945 V 48.75 h 25.29 v 93.316 l 2.9,9.2 6.85,7.101 6.33,1.571 9.49,-3.672 5.26,-8.946 0.8,-11.031 V 48.4805 h 25.55 v 98.5855 l -3.68,16.036 -4.75,6.593 -7.38,4.735 -16.85,4.484 -15.3,-3.43 -8.95,-6.328 -5.01,-4.472 -7.91,7.382 -9.75,5.266 -9.48,1.316 -14.76,-3.164 -8.16,-5.527 -4.75,-3.953 0.27,10.809"
         style="fill:#5f523c;fill-opacity:1;fill-rule:nonzero;stroke:none"
         id="path84" /><path
         d="M 3004.49,176.539 V 79.0508 l 3.43,-15.8125 4.21,-7.3789 6.59,-5.2813 17.39,-4.4687 12.66,1.582 11.05,7.1094 5.01,5.8008 0.27,-11.8516 h 25.04 l -1.06,14.2188 -0.52,46.9102 v 66.406 h -26.1 V 86.6992 l -2.11,-10.289 -6.05,-8.4297 -8.69,-2.6289 -8.18,2.1093 -6.06,6.5782 -2.11,10.0195 v 92.4804 h -24.77"
         style="fill:#5f523c;fill-opacity:1;fill-rule:nonzero;stroke:none"
         id="path86" /><path
         d="m 3156.41,176.813 h -24.52 l 1.33,-24.774 V 49.0117 h 26.09 v 89.8513 l 1.57,10.274 6.33,8.164 9.22,2.637 8.96,-2.364 5,-6.855 2.11,-9.481 V 48.75 h 25.3 l -1.05,100.914 -5.54,16.602 -8.43,8.164 -7.64,3.429 -10.28,1.582 -15.28,-3.429 -13.17,-9.746 v 10.547"
         style="fill:#5f523c;fill-opacity:1;fill-rule:nonzero;stroke:none"
         id="path88" /><path
         d="m 3282.5,130.949 0.53,13.442 5.79,12.382 10.01,3.965 10.27,-3.691 5.02,-5.274 2.89,-16.074 0.26,-16.871 0.27,-19.7499 -1.06,-14.7695 -2.36,-6.8398 -3.95,-6.0704 -10.54,-4.2187 -5.8,0.8008 -3.96,2.6406 -5.01,8.168 -2.11,13.1718 -0.25,5.5391 z m 35.57,34.262 -6.06,7.383 -9.22,4.472 -11.07,1.848 -16.34,-3.684 -7.37,-5.273 -4.75,-6.855 -4.48,-15.02 -0.79,-11.332 -0.26,-10.02 v -20.281 l 1.05,-28.4607 5.8,-14.75 10.27,-10.5391 15.81,-3.4297 10.54,1.0586 9.49,5.2617 5.54,5.0118 -0.27,-17.1328 0.52,-6.3282 -2.63,-10 -4.47,-5.539 -8.18,-2.8907 -8.69,2.3594 -4.22,4.2188 -2.63,9.7617 -0.27,4.4805 -24.76,0.25 2.37,-18.961 3.43,-7.9101 7.63,-6.58989 11.33,-5.01172 L 3301.2,0 l 18.71,2.62891 11.34,7.39059 7.9,11.8516 1.85,10.5391 1.05,15.5507 0.26,27.1289 v 64.8282 l 0.27,17.91 1.58,18.711 -24.78,0.527 -1.31,-11.855"
         style="fill:#5f523c;fill-opacity:1;fill-rule:nonzero;stroke:none"
         id="path90" /><path
         d="m 1010.86,449.391 c 7.84,0 14.18,6.347 14.18,14.179 v 107.852 11.683 c 0,7.833 -6.34,14.176 -14.18,14.176 H 1008.09 16.9531 14.1758 C 6.34375,597.281 0,590.938 0,583.105 V 571.422 463.57 c 0,-7.832 6.34375,-14.179 14.1758,-14.179 H 1010.86"
         style="fill:#f46f1b;fill-opacity:1;fill-rule:nonzero;stroke:none"
         id="path92" /></g></g></svg>
