<?xml version="1.0" standalone="no"?>
<!DOCTYPE svg PUBLIC "-//W3C//DTD SVG 20010904//EN"
 "http://www.w3.org/TR/2001/REC-SVG-20010904/DTD/svg10.dtd">
<svg version="1.0" xmlns="http://www.w3.org/2000/svg"
 width="1200.000000pt" height="1200.000000pt" viewBox="0 0 1200.000000 1200.000000"
 preserveAspectRatio="xMidYMid meet">
<metadata>
Created by potrace 1.14, written by Peter Selinger 2001-2017
</metadata>
<g transform="translate(0.000000,1200.000000) scale(0.100000,-0.100000)"
fill="#000000" stroke="none">
<path d="M3350 8278 c-19 -9 -30 -17 -25 -18 6 0 4 -4 -2 -8 -7 -4 -15 -24
-17 -44 -5 -39 6 -58 69 -124 17 -17 77 -82 135 -144 58 -62 127 -136 153
-164 27 -28 90 -96 140 -150 176 -190 242 -252 292 -277 48 -23 60 -24 280
-27 127 -2 257 -2 290 -1 33 1 78 1 100 0 22 -1 47 -2 55 -1 21 0 503 -1 515
-1 6 0 73 0 150 0 146 1 157 1 318 4 53 1 97 -1 97 -5 0 -4 7 -5 14 -2 24 9
146 10 146 1 0 -5 5 -5 11 -1 6 3 39 6 72 5 34 -1 89 -1 122 0 33 1 75 1 93 0
55 -1 81 -1 294 1 115 2 208 0 208 -4 0 -4 7 -5 14 -2 24 9 146 10 146 1 0 -5
4 -6 9 -3 7 5 137 8 206 6 11 -1 60 -1 108 0 49 0 93 -2 98 -5 5 -4 9 -2 9 3
0 14 107 -6 153 -30 36 -18 105 -65 144 -98 7 -5 15 -10 19 -10 3 0 20 -11 38
-25 17 -14 36 -29 42 -34 5 -4 21 -14 34 -21 14 -7 30 -19 37 -26 7 -6 29 -22
50 -35 21 -13 47 -31 57 -41 11 -10 23 -18 27 -18 4 0 14 -6 21 -12 7 -7 27
-22 43 -34 54 -37 168 -117 282 -196 61 -43 126 -95 143 -116 51 -62 58 -104
60 -368 1 -132 2 -282 2 -334 1 -150 -7 -185 -49 -217 l-36 -28 -1970 0
c-2137 0 -2008 -4 -2045 53 -20 31 -23 42 -22 117 0 11 0 42 -1 68 0 27 2 51
4 53 3 3 1 21 -3 40 -5 19 -4 37 1 40 5 3 7 10 3 15 -9 15 -11 79 -2 79 3 0 3
13 -2 29 -4 16 -6 31 -4 34 8 8 11 66 4 78 -4 6 -4 25 0 40 5 16 6 29 2 29 -8
0 -7 104 2 125 3 8 2 15 -2 15 -6 0 -7 65 -2 80 2 3 2 9 1 14 -1 6 -3 30 -5
55 -3 57 -21 86 -65 107 -31 15 -91 17 -526 17 -426 0 -495 -2 -528 -16 -70
-30 -67 20 -67 -1007 0 -1024 -4 -963 68 -998 35 -17 167 -18 3017 -17 l2980
1 50 23 c87 38 144 109 161 196 4 22 7 477 6 1010 0 968 -1 970 -22 1040 -19
59 -63 137 -112 195 -7 9 -53 45 -103 80 -49 35 -92 67 -95 70 -3 3 -13 10
-22 15 -16 9 -59 39 -203 140 -33 23 -91 64 -130 91 -38 26 -72 51 -75 54 -3
3 -12 10 -21 15 -47 28 -160 109 -170 121 -6 8 -17 14 -24 14 -6 0 -20 9 -30
20 -10 11 -24 20 -31 20 -7 0 -14 4 -16 8 -1 4 -32 28 -68 52 -36 25 -66 48
-68 53 -2 4 -10 7 -17 7 -7 0 -15 4 -17 8 -3 9 -109 84 -162 115 -17 11 -40
27 -51 37 -65 57 -285 185 -285 165 0 -2 -12 1 -27 7 -20 8 -633 11 -2233 12
-2058 1 -2208 0 -2240 -16z"/>
<path d="M1210 3763 c0 -4 -37 -8 -82 -7 -81 1 -84 0 -118 -33 l-35 -34 -1
-444 -1 -445 4299 0 4298 0 0 38 c1 20 1 216 1 435 0 464 4 445 -96 483 -11 4
-24 6 -30 5 -24 -6 -132 -4 -142 2 -6 4 -14 3 -17 -2 -4 -6 -18 -6 -36 -1 -19
5 -28 5 -25 -1 4 -5 -4 -5 -19 1 -14 5 -26 6 -26 2 0 -8 -187 -8 -196 0 -3 4
-18 3 -33 -2 -15 -4 -35 -3 -44 2 -10 5 -17 5 -17 1 0 -6 -111 -9 -130 -3 -3
1 -27 1 -55 0 -91 -2 -130 -2 -140 0 -5 1 -14 2 -20 0 -25 -4 -115 -1 -124 5
-6 3 -11 3 -11 -2 0 -6 -132 -9 -150 -2 -3 1 -9 0 -15 -1 -12 -3 -146 -3 -160
0 -5 1 -14 2 -20 0 -25 -4 -115 -1 -124 5 -6 3 -11 3 -11 -2 0 -6 -110 -9
-130 -3 -3 1 -27 1 -55 0 -91 -2 -130 -2 -140 0 -5 1 -14 2 -20 0 -25 -4 -115
-1 -124 5 -6 3 -11 3 -11 -2 0 -6 -132 -9 -150 -2 -3 1 -9 0 -15 -1 -12 -3
-146 -3 -160 0 -5 1 -14 2 -20 0 -13 -2 -128 -2 -140 0 -6 1 -14 2 -20 0 -25
-4 -115 -1 -124 5 -6 3 -11 3 -11 -2 0 -6 -132 -9 -150 -2 -3 1 -9 0 -15 -1
-12 -3 -146 -3 -160 0 -5 1 -14 2 -20 0 -13 -2 -128 -2 -140 0 -6 1 -14 2 -20
0 -25 -4 -115 -1 -124 5 -6 3 -11 3 -11 -2 0 -6 -132 -9 -150 -2 -3 1 -9 0
-15 -1 -12 -3 -146 -3 -160 0 -5 1 -14 2 -20 0 -13 -2 -128 -2 -140 0 -6 1
-14 2 -20 0 -25 -4 -115 -1 -124 5 -6 3 -11 3 -11 -2 0 -6 -132 -9 -150 -2 -3
1 -9 0 -15 -1 -12 -3 -146 -3 -160 0 -5 1 -14 2 -20 0 -25 -4 -115 -1 -124 5
-6 3 -11 3 -11 -2 0 -6 -110 -9 -130 -3 -3 1 -27 1 -55 0 -91 -2 -130 -2 -140
0 -5 1 -14 2 -20 0 -25 -4 -115 -1 -124 5 -6 3 -11 3 -11 -2 0 -6 -132 -9
-150 -2 -3 1 -9 0 -15 -1 -12 -3 -146 -3 -160 0 -5 1 -14 2 -20 0 -25 -4 -115
-1 -124 5 -6 3 -11 3 -11 -2 0 -6 -110 -9 -130 -3 -13 4 -100 1 -108 -4 -5 -3
-23 -1 -41 4 -19 5 -29 5 -26 -1 4 -5 -4 -5 -19 1 -14 5 -26 6 -26 2 0 -9
-183 -8 -198 2 -6 3 -13 2 -16 -3 -4 -6 -18 -6 -36 -1 -19 5 -28 5 -25 -1 4
-5 -4 -5 -19 1 -14 5 -26 6 -26 2 0 -8 -187 -8 -196 0 -3 4 -18 3 -33 -2 -15
-4 -35 -3 -44 2 -10 5 -17 5 -17 1 0 -6 -111 -9 -130 -3 -3 1 -27 1 -55 0 -91
-2 -130 -2 -140 0 -5 1 -14 2 -20 0 -25 -4 -115 -1 -124 5 -6 3 -11 3 -11 -2
0 -6 -132 -9 -150 -2 -3 1 -9 0 -15 -1 -12 -3 -146 -3 -160 0 -5 1 -14 2 -20
0 -25 -4 -115 -1 -124 5 -6 3 -11 3 -11 -2 0 -6 -110 -9 -130 -3 -13 4 -100 1
-108 -4 -5 -3 -23 -1 -41 4 -19 5 -29 5 -26 -1 4 -5 -4 -5 -19 1 -14 5 -26 6
-26 2 0 -9 -183 -8 -198 2 -6 3 -13 2 -16 -3 -4 -6 -18 -6 -36 -1 -19 5 -28 5
-25 -1 4 -5 -4 -5 -19 1 -14 5 -26 6 -26 2 0 -8 -187 -8 -196 0 -3 4 -18 3
-33 -2 -15 -4 -35 -3 -44 2 -10 5 -17 5 -17 1z"/>
</g>
</svg>
